<svg xmlns="http://www.w3.org/2000/svg" xmlns:xlink="http://www.w3.org/1999/xlink" viewBox="0 0 290 107.04"><defs><style>.cls-1{fill:none;}.cls-2{fill:#b09e80;}.cls-3{clip-path:url(#clip-path);}</style><clipPath id="clip-path" transform="translate(0 -0.02)"><rect class="cls-1" x="128.5" width="31.85" height="30"/></clipPath></defs><title>logo</title><g id="Шар_2" data-name="Шар 2"><g id="Шар_1-2" data-name="Шар 1"><path class="cls-2" d="M3,98.6a3.72,3.72,0,0,1,2.49.76,2.52,2.52,0,0,1,.9,2.07,2.58,2.58,0,0,1-.9,2.08,3.83,3.83,0,0,1-2.49.74H.61V107H0V98.6Zm0,5.1a3.13,3.13,0,0,0,2.05-.59,2.34,2.34,0,0,0,0-3.36,3.08,3.08,0,0,0-2-.6H.61v4.55ZM17.29,107l-2-2.81a6.21,6.21,0,0,1-.82.06h-2.4V107h-.61V98.6h3a3.72,3.72,0,0,1,2.49.76,2.52,2.52,0,0,1,.9,2.07,2.71,2.71,0,0,1-.52,1.68,2.67,2.67,0,0,1-1.45,1L18,107Zm-2.82-3.29a3.08,3.08,0,0,0,2-.59,2.07,2.07,0,0,0,.71-1.69,2,2,0,0,0-.71-1.68,3.08,3.08,0,0,0-2-.6h-2.4v4.56Zm12.19,3.35a4.5,4.5,0,0,1-2.23-.55,4.33,4.33,0,0,1-1.57-5.88,4.12,4.12,0,0,1,1.57-1.53,4.76,4.76,0,0,1,4.46,0,4,4,0,0,1,1.56,1.53,4.39,4.39,0,0,1,0,4.36,4,4,0,0,1-1.56,1.53A4.47,4.47,0,0,1,26.66,107.06Zm0-.56a3.82,3.82,0,0,0,1.91-.48,3.47,3.47,0,0,0,1.34-1.32,3.72,3.72,0,0,0,.5-1.9,3.62,3.62,0,0,0-.5-1.88,3.45,3.45,0,0,0-1.34-1.34,3.82,3.82,0,0,0-1.91-.48,3.91,3.91,0,0,0-1.92.48,3.52,3.52,0,0,0-1.34,1.34,3.61,3.61,0,0,0-.49,1.88,3.71,3.71,0,0,0,.49,1.9A3.54,3.54,0,0,0,24.74,106,3.91,3.91,0,0,0,26.66,106.5Zm10.1-7.35v3.59h4.48v.55H36.76V107h-.61V98.6h5.62v.55Zm15.76,7.3V107h-5.8V98.6h5.62v.55h-5v3.31h4.48V103H47.33v3.45Zm7.44.61a5,5,0,0,1-1.77-.31,3.43,3.43,0,0,1-1.29-.83l.27-.46a3.31,3.31,0,0,0,1.19.77,4.48,4.48,0,0,0,1.59.29,3,3,0,0,0,1.81-.46,1.4,1.4,0,0,0,.61-1.18,1.25,1.25,0,0,0-.32-.9,2.13,2.13,0,0,0-.81-.52,11.6,11.6,0,0,0-1.29-.37,11,11,0,0,1-1.49-.45,2.33,2.33,0,0,1-1-.66,1.77,1.77,0,0,1-.38-1.21,2,2,0,0,1,.32-1.11,2.17,2.17,0,0,1,1-.82,4.12,4.12,0,0,1,1.67-.3,4.88,4.88,0,0,1,1.37.2,3.79,3.79,0,0,1,1.16.56l-.22.49a4,4,0,0,0-1.12-.53,4.14,4.14,0,0,0-1.19-.18,2.84,2.84,0,0,0-1.76.47,1.46,1.46,0,0,0-.6,1.21,1.25,1.25,0,0,0,.32.9,2.26,2.26,0,0,0,.81.52,13.28,13.28,0,0,0,1.3.38,12.72,12.72,0,0,1,1.48.44,2.51,2.51,0,0,1,.94.66,1.7,1.7,0,0,1,.39,1.18,2,2,0,0,1-.33,1.12,2.3,2.3,0,0,1-1,.8A4.21,4.21,0,0,1,60,107.06Zm10.31,0a4.94,4.94,0,0,1-1.76-.31,3.39,3.39,0,0,1-1.3-.83l.28-.46a3.18,3.18,0,0,0,1.18.77,4.52,4.52,0,0,0,1.59.29,3,3,0,0,0,1.81-.46,1.4,1.4,0,0,0,.61-1.18,1.25,1.25,0,0,0-.32-.9,2.13,2.13,0,0,0-.81-.52,11.6,11.6,0,0,0-1.29-.37,11.51,11.51,0,0,1-1.49-.45,2.4,2.4,0,0,1-1-.66,1.83,1.83,0,0,1-.38-1.21,2,2,0,0,1,.32-1.11,2.2,2.2,0,0,1,1-.82,4,4,0,0,1,1.66-.3,4.88,4.88,0,0,1,1.37.2A4,4,0,0,1,73,99.3l-.23.49a4,4,0,0,0-1.12-.53,4.09,4.09,0,0,0-1.19-.18,2.84,2.84,0,0,0-1.76.47,1.46,1.46,0,0,0-.6,1.21,1.25,1.25,0,0,0,.32.9,2.26,2.26,0,0,0,.81.52,12.8,12.8,0,0,0,1.31.38A13.09,13.09,0,0,1,72,103a2.51,2.51,0,0,1,.94.66,1.7,1.7,0,0,1,.39,1.18A2,2,0,0,1,73,106a2.24,2.24,0,0,1-1,.8A4.21,4.21,0,0,1,70.27,107.06Zm8.11-8.46H79V107h-.61Zm10.1,8.46a4.47,4.47,0,0,1-2.23-.55A4.25,4.25,0,0,1,84.67,105a4.48,4.48,0,0,1,0-4.34,4.15,4.15,0,0,1,1.58-1.53,4.76,4.76,0,0,1,4.46,0,4.09,4.09,0,0,1,1.56,1.53,4.39,4.39,0,0,1,0,4.36,4.09,4.09,0,0,1-1.56,1.53A4.5,4.5,0,0,1,88.48,107.06Zm0-.56a3.84,3.84,0,0,0,1.91-.48,3.61,3.61,0,0,0,1.34-1.32,3.71,3.71,0,0,0,.49-1.9,3.66,3.66,0,0,0-1.83-3.22,4.06,4.06,0,0,0-3.83,0,3.55,3.55,0,0,0-1.35,1.34,3.71,3.71,0,0,0-.49,1.88,3.81,3.81,0,0,0,.49,1.9A3.56,3.56,0,0,0,86.56,106,3.85,3.85,0,0,0,88.48,106.5Zm16.33-7.9V107h-.51l-5.72-7.3V107H98V98.6h.51l5.72,7.3V98.6Zm11.13,6h-4.87L110,107h-.66l3.86-8.4h.61l3.87,8.4H117Zm-.23-.52-2.21-4.85-2.19,4.85Zm6.49-5.52h.61v7.85h4.84V107H122.2Zm19.66,8.46a4.53,4.53,0,0,1-2.24-.55,4.24,4.24,0,0,1-1.56-1.53,4.52,4.52,0,0,1,0-4.36,4.24,4.24,0,0,1,1.56-1.53,4.53,4.53,0,0,1,2.24-.55,4.64,4.64,0,0,1,1.68.3,3.4,3.4,0,0,1,1.3.86l-.38.4a3.53,3.53,0,0,0-2.58-1,3.91,3.91,0,0,0-1.92.48,3.5,3.5,0,0,0-1.36,1.34,3.71,3.71,0,0,0-.49,1.88,3.81,3.81,0,0,0,.49,1.9A3.52,3.52,0,0,0,140,106a3.91,3.91,0,0,0,1.92.48,3.53,3.53,0,0,0,2.58-1l.38.39a3.44,3.44,0,0,1-1.32.88A4.49,4.49,0,0,1,141.86,107.06Zm13.83-.61V107h-5.8V98.6h5.62v.55h-5v3.31H155V103h-4.47v3.45Zm11.06.55-2-2.81a6.21,6.21,0,0,1-.82.06h-2.4V107h-.61V98.6h3a3.72,3.72,0,0,1,2.49.76,2.52,2.52,0,0,1,.9,2.07,2.58,2.58,0,0,1-2,2.63l2.1,2.94Zm-2.82-3.29a3.12,3.12,0,0,0,2.06-.59,2.09,2.09,0,0,0,.7-1.69,2.06,2.06,0,0,0-.7-1.68,3.12,3.12,0,0,0-2.06-.6h-2.4v4.56Zm10.12-4.56h-3V98.6h6.66v.55h-3V107h-.61Zm8.15-.55h.61V107h-.61Zm7.15.55v3.59h4.48v.55h-4.48V107h-.61V98.6h5.62v.55Zm10-.55h.61V107h-.61Zm12.34,7.85V107h-5.8V98.6h5.62v.55h-5v3.31h4.48V103h-4.48v3.45Zm5.23-7.85h3.32a4.84,4.84,0,0,1,2.32.54,3.88,3.88,0,0,1,1.58,1.5,4.1,4.1,0,0,1,.57,2.16,4.16,4.16,0,0,1-.57,2.17,3.92,3.92,0,0,1-1.58,1.49,4.84,4.84,0,0,1-2.32.54h-3.32Zm3.27,7.85a4.4,4.4,0,0,0,2.06-.46,3.32,3.32,0,0,0,1.36-1.29,4,4,0,0,0,0-3.8,3.24,3.24,0,0,0-1.36-1.28,4.41,4.41,0,0,0-2.06-.47h-2.66v7.3Zm19.28.61a4.53,4.53,0,0,1-2.24-.55,4.24,4.24,0,0,1-1.56-1.53,4.52,4.52,0,0,1,0-4.36,4.24,4.24,0,0,1,1.56-1.53,4.53,4.53,0,0,1,2.24-.55,4.64,4.64,0,0,1,1.68.3,3.4,3.4,0,0,1,1.3.86l-.38.4a3.53,3.53,0,0,0-2.58-1,3.91,3.91,0,0,0-1.92.48,3.5,3.5,0,0,0-1.36,1.34,3.71,3.71,0,0,0-.49,1.88,3.81,3.81,0,0,0,.49,1.9,3.52,3.52,0,0,0,1.36,1.32,3.91,3.91,0,0,0,1.92.48,3.53,3.53,0,0,0,2.58-1l.38.39a3.44,3.44,0,0,1-1.32.88A4.49,4.49,0,0,1,239.43,107.06Zm11.42,0a4.5,4.5,0,0,1-2.23-.55,4.33,4.33,0,0,1-1.57-5.88,4.12,4.12,0,0,1,1.57-1.53,4.76,4.76,0,0,1,4.46,0,4,4,0,0,1,1.56,1.53,4.39,4.39,0,0,1,0,4.36,4,4,0,0,1-1.56,1.53A4.47,4.47,0,0,1,250.85,107.06Zm0-.56a3.82,3.82,0,0,0,1.91-.48,3.47,3.47,0,0,0,1.34-1.32,3.72,3.72,0,0,0,.5-1.9,3.62,3.62,0,0,0-.5-1.88,3.45,3.45,0,0,0-1.34-1.34,3.82,3.82,0,0,0-1.91-.48,3.91,3.91,0,0,0-1.92.48,3.52,3.52,0,0,0-1.34,1.34,3.61,3.61,0,0,0-.49,1.88,3.71,3.71,0,0,0,.49,1.9,3.54,3.54,0,0,0,1.34,1.32A3.91,3.91,0,0,0,250.85,106.5Zm14.57-1.86h-4.87L259.48,107h-.66l3.87-8.4h.61l3.86,8.4h-.66Zm-.23-.52L263,99.27l-2.2,4.85Zm9.93,2.94a4.5,4.5,0,0,1-2.23-.55,4.09,4.09,0,0,1-1.56-1.53,4.52,4.52,0,0,1,0-4.36,4.09,4.09,0,0,1,1.56-1.53,4.5,4.5,0,0,1,2.23-.55,4.56,4.56,0,0,1,1.68.3,3.44,3.44,0,0,1,1.31.86l-.38.4a3.56,3.56,0,0,0-2.58-1,3.85,3.85,0,0,0-1.92.48,3.5,3.5,0,0,0-1.36,1.34,3.61,3.61,0,0,0-.49,1.88,3.71,3.71,0,0,0,.49,1.9,3.52,3.52,0,0,0,1.36,1.32,3.85,3.85,0,0,0,1.92.48,3.53,3.53,0,0,0,2.58-1l.38.39a3.44,3.44,0,0,1-1.32.88A4.55,4.55,0,0,1,275.12,107.06ZM290,98.6V107h-.61v-4h-5.62v4h-.61V98.6h.61v3.86h5.62V98.6Z" transform="translate(0 -0.02)"/><path class="cls-2" d="M64.88,27a4.79,4.79,0,0,1,3.8,1.67,5.69,5.69,0,0,1,1.44,4,11.73,11.73,0,0,1-.68,3.58A18.48,18.48,0,0,1,68,39.44a.64.64,0,0,1-.68.08.44.44,0,0,1-.23-.53,7.22,7.22,0,0,0,.38-2.74,5.34,5.34,0,0,0-.76-2.51,4.72,4.72,0,0,0-2.13-1.82,7.08,7.08,0,0,0-3.49-.76,11.09,11.09,0,0,0-5,1.06,10,10,0,0,0-3.8,3.58A29.41,29.41,0,0,0,49,42.56q-1.52,4.26-3.11,10.64-2.66,10.19-7.37,15.73,3.42,1.29,7.14,2.36a33.11,33.11,0,0,0,8.36,1,10.17,10.17,0,0,0,5.78-1.37,10.27,10.27,0,0,0,3.26-4,.36.36,0,0,1,.54,0c.2.1.28.3.22.6A15.08,15.08,0,0,1,59,73.87,13.93,13.93,0,0,1,50.82,76a24.94,24.94,0,0,1-8.21-1.29c-2.43-.91-4.81-1.88-7.14-2.89A22,22,0,0,1,21.86,76a8,8,0,0,1-4.56-1.06,3.17,3.17,0,0,1-1.52-2.66,4.16,4.16,0,0,1,.69-2.13A8.91,8.91,0,0,1,18.52,68a12.08,12.08,0,0,1,3-1.67,11.29,11.29,0,0,1,4-.69,20.07,20.07,0,0,1,5.47.76,51.25,51.25,0,0,1,5.55,1.75,33,33,0,0,0,2.5-5.32A75.49,75.49,0,0,0,41.55,55a69.93,69.93,0,0,1,4.18-11.7,40.63,40.63,0,0,1,5.39-8.82A23.11,23.11,0,0,1,57.58,29,14.62,14.62,0,0,1,64.88,27ZM25.28,74a19.9,19.9,0,0,0,4.87-.53,9.11,9.11,0,0,0,4-2.28Q31.28,70,28.4,69.08a20.62,20.62,0,0,0-6.16-.91c-2.33,0-3.49.79-3.49,2.36A2.89,2.89,0,0,0,20.42,73,10.05,10.05,0,0,0,25.28,74ZM77.63,53.28a.37.37,0,0,1-.53,0,1.92,1.92,0,0,1-.38-.61,2.94,2.94,0,0,1-.15-.91,1.7,1.7,0,0,1,.23-.92,30.19,30.19,0,0,1,2.43-2.66,21.21,21.21,0,0,1,3.42-2.81c.1,0,.23,0,.38.15s.2.21.15.31a21.15,21.15,0,0,0-3,3.49A34.72,34.72,0,0,0,77.63,53.28ZM69.5,61.86a.24.24,0,0,1-.38-.07.7.7,0,0,1-.08-.53,41.89,41.89,0,0,1,7.83-4.72c.41,0,.61.23.61.69-.66,1.16-1.32,2.43-2,3.8s-1.16,2.73-1.67,4.1S73,67.74,72.69,69a13.11,13.11,0,0,0-.45,3c0,1,.35,1.52,1.06,1.52a2.36,2.36,0,0,0,1.6-.69c.55-.5,1.19-1.14,1.9-1.9.1-.1.22-.07.38.08s.17.28.07.53a19.29,19.29,0,0,1-3.34,3.19A5.19,5.19,0,0,1,70.79,76c-1.77,0-2.66-.84-2.66-2.51a16.2,16.2,0,0,1,.38-3.19,39.15,39.15,0,0,1,1.14-3.8c.51-1.32,1-2.58,1.6-3.8a26.59,26.59,0,0,1,1.82-3.27c-.56.31-1.19.69-1.9,1.14A19.77,19.77,0,0,0,69.5,61.86Zm44.23-42.33a2.65,2.65,0,0,1,1.83.61,2.44,2.44,0,0,1,1,1.52,4.18,4.18,0,0,1,.08,2.13,6.53,6.53,0,0,1-.84,2.43c-.1.1-.22.1-.38,0a.73.73,0,0,1-.3-.38,1.49,1.49,0,0,0-.68-1.52,3.89,3.89,0,0,0-2.44-.61,10.61,10.61,0,0,0-6.3,2.36,30.9,30.9,0,0,0-6.08,6.08,56.55,56.55,0,0,0-5.55,8.74,84.26,84.26,0,0,0-7.52,20.59,47.14,47.14,0,0,0-1.07,9.43q0,2.28,1.29,2.28a2.62,2.62,0,0,0,1.75-.76,13.92,13.92,0,0,0,2-2.28.24.24,0,0,1,.38.07.39.39,0,0,1,.16.46,15.14,15.14,0,0,1-3.58,3.8A6.48,6.48,0,0,1,83.79,76a2.36,2.36,0,0,1-2.05-.84A3.81,3.81,0,0,1,81.21,73a33.3,33.3,0,0,1,1.52-8.9,95.9,95.9,0,0,1,4-11.32,126,126,0,0,1,5.93-11.93A94.63,94.63,0,0,1,99.6,30.25a45.12,45.12,0,0,1,7.29-7.75Q110.54,19.53,113.73,19.53ZM103.2,53.28a.37.37,0,0,1-.53,0,1.76,1.76,0,0,1-.38-.61,3,3,0,0,1-.16-.91,1.79,1.79,0,0,1,.23-.92,33.73,33.73,0,0,1,2.43-2.66,22.11,22.11,0,0,1,3.42-2.81c.11,0,.23,0,.38.15s.21.21.16.31a20.69,20.69,0,0,0-3,3.49A33.39,33.39,0,0,0,103.2,53.28Zm-8.13,8.58a.24.24,0,0,1-.38-.07.7.7,0,0,1-.08-.53,41.56,41.56,0,0,1,7.83-4.72c.4,0,.61.23.61.69-.66,1.16-1.32,2.43-2,3.8s-1.16,2.73-1.67,4.1A39.12,39.12,0,0,0,98.26,69a12.67,12.67,0,0,0-.46,3c0,1,.36,1.52,1.07,1.52a2.34,2.34,0,0,0,1.59-.69c.56-.5,1.19-1.14,1.9-1.9.1-.1.23-.07.38.08s.18.28.08.53a19.32,19.32,0,0,1-3.35,3.19A5.17,5.17,0,0,1,96.36,76c-1.77,0-2.66-.84-2.66-2.51a16.2,16.2,0,0,1,.38-3.19,34.26,34.26,0,0,1,1.14-3.8c.51-1.32,1-2.58,1.59-3.8a26.55,26.55,0,0,1,1.83-3.27c-.56.31-1.19.69-1.9,1.14A18.27,18.27,0,0,0,95.07,61.86Zm29-3.11a3.28,3.28,0,0,1,1.68-1.45,5.2,5.2,0,0,1,2.43-.76c.45,0,.63.18.53.54q-1.66,4.71-3.34,9.19T122,75.39q-3.8,9.81-9.5,14.44a18.57,18.57,0,0,1-12,4.64,10.66,10.66,0,0,1-6.91-2A6.21,6.21,0,0,1,91,87.48a5.55,5.55,0,0,1,1.14-3.27,6.14,6.14,0,0,1,3.12-2.28.38.38,0,0,1,.45.15.39.39,0,0,1,0,.46,4.57,4.57,0,0,0-1.21,3.26,7,7,0,0,0,2,5.17,7.72,7.72,0,0,0,5.7,2,13.57,13.57,0,0,0,4.87-.84,10.59,10.59,0,0,0,4.1-3,25.36,25.36,0,0,0,3.8-5.7,72.54,72.54,0,0,0,3.72-9c.61-1.67,1.14-3.17,1.6-4.48s1-2.77,1.52-4.34a45.77,45.77,0,0,1-3,4.18,24.56,24.56,0,0,1-3.12,3.27,15,15,0,0,1-3,2.13,5.76,5.76,0,0,1-2.66.76,2.58,2.58,0,0,1-2.21-.91,4.15,4.15,0,0,1-.68-2.51,20.75,20.75,0,0,1,1.06-6.08,33.56,33.56,0,0,1,3-6.69l-1.52,1a9.07,9.07,0,0,0-1.29,1.06c-.15.11-.3.08-.46-.07a.5.5,0,0,1,0-.53,9.16,9.16,0,0,1,1.45-1.14,19.19,19.19,0,0,1,2-1.3l2.13-1.21c.76-.41,1.5-.76,2.21-1.07.5,0,.71.23.6.69a20.7,20.7,0,0,0-2.2,3.42,34.72,34.72,0,0,0-1.6,3.72A25.1,25.1,0,0,0,111.56,68a20.44,20.44,0,0,0-.3,3.27c0,1.42.45,2.13,1.36,2.13a4.73,4.73,0,0,0,2.89-1.52,24,24,0,0,0,3.27-3.73,42.19,42.19,0,0,0,3-4.79A32.88,32.88,0,0,0,124,58.75Zm28.16,12.46a.28.28,0,0,1,.38,0,.39.39,0,0,1,.15.46,12.92,12.92,0,0,1-3,3.19A5.7,5.7,0,0,1,146.48,76q-1.75,0-2.28-2.43a13.17,13.17,0,0,1,.53-5.93,30,30,0,0,1-4.48,5.62,9.5,9.5,0,0,1-5,2.74,3.11,3.11,0,0,1-2.81-1.67,7.49,7.49,0,0,1-1-3.88,11,11,0,0,1,1.22-4.94A16.42,16.42,0,0,1,135.84,61a18.09,18.09,0,0,1,4.48-3.19,10.82,10.82,0,0,1,5-1.3,6.21,6.21,0,0,1,4.18,1.3,7.47,7.47,0,0,1,1.9-.92,7.38,7.38,0,0,1,2.13-.38c.2,0,.3.13.3.38a25.09,25.09,0,0,0-3,4.72,31.37,31.37,0,0,0-1.9,4.86,20.68,20.68,0,0,0-.83,4.1,4.18,4.18,0,0,0,.3,2.51,1.28,1.28,0,0,0,1.29.31A6.23,6.23,0,0,0,152.18,71.21Zm-14.59,2a3.66,3.66,0,0,0,2.2-1.14,18.83,18.83,0,0,0,2.81-3,42,42,0,0,0,2.82-4.26,39.06,39.06,0,0,0,2.5-4.79,2.73,2.73,0,0,0-1.44-1.59,4.94,4.94,0,0,0-2.51-.61,6.26,6.26,0,0,0-3.27.91A8.14,8.14,0,0,0,138,61.1a13.3,13.3,0,0,0-1.74,3.73,17,17,0,0,0-.61,4.71,5.71,5.71,0,0,0,.53,2.66A1.69,1.69,0,0,0,137.59,73.19ZM218.26,27a4.77,4.77,0,0,1,3.8,1.67,5.65,5.65,0,0,1,1.45,4,11.48,11.48,0,0,1-.69,3.58,17.81,17.81,0,0,1-1.44,3.26.64.64,0,0,1-.68.08.43.43,0,0,1-.23-.53,7.42,7.42,0,0,0,.38-2.74,5.46,5.46,0,0,0-.76-2.51A4.82,4.82,0,0,0,218,31.92a7.12,7.12,0,0,0-3.5-.76,11.08,11.08,0,0,0-5,1.06,10,10,0,0,0-3.8,3.58,28.61,28.61,0,0,0-3.27,6.76q-1.51,4.26-3.12,10.64-2.65,10.19-7.37,15.73,3.42,1.29,7.15,2.36a33.11,33.11,0,0,0,8.36,1,8.71,8.71,0,0,0,9-5.32.35.35,0,0,1,.53,0c.21.1.28.3.23.6a15.24,15.24,0,0,1-4.86,6.31A13.94,13.94,0,0,1,204.2,76a24.92,24.92,0,0,1-8.2-1.29c-2.44-.91-4.82-1.88-7.15-2.89A21.93,21.93,0,0,1,175.25,76a8,8,0,0,1-4.56-1.06,3.17,3.17,0,0,1-1.52-2.66,4.23,4.23,0,0,1,.68-2.13A9.1,9.1,0,0,1,171.9,68a12.44,12.44,0,0,1,3-1.67,11.33,11.33,0,0,1,4-.69,20,20,0,0,1,5.47.76A49.89,49.89,0,0,1,190,68.17a33,33,0,0,0,2.51-5.32A78.24,78.24,0,0,0,194.93,55a70.83,70.83,0,0,1,4.18-11.7,40.26,40.26,0,0,1,5.4-8.82A23.11,23.11,0,0,1,211,29,14.59,14.59,0,0,1,218.26,27ZM178.67,74a19.87,19.87,0,0,0,4.86-.53,9,9,0,0,0,3.95-2.28,59.28,59.28,0,0,0-5.7-2.13,20.51,20.51,0,0,0-6.15-.91c-2.33,0-3.5.79-3.5,2.36A2.9,2.9,0,0,0,173.8,73,10.09,10.09,0,0,0,178.67,74Zm45.89,2q-3.19,0-3.19-3.5a20.41,20.41,0,0,1,.22-2.81,31.5,31.5,0,0,1,.84-3.27c.41-1.16.86-2.33,1.37-3.49a20.9,20.9,0,0,1,1.82-3.35A18.92,18.92,0,0,0,224,60.72a10.48,10.48,0,0,0-1.37,1.14.33.33,0,0,1-.46-.07.5.5,0,0,1,0-.53,17.88,17.88,0,0,1,3.65-2.82,30.42,30.42,0,0,1,4.64-2.28.6.6,0,0,1,.53.23c.15.1.18.26.07.46a30.53,30.53,0,0,0-4,6.91A20,20,0,0,0,225.7,71c0,1.47.45,2.21,1.37,2.21a4.09,4.09,0,0,0,2.43-1.29,29.15,29.15,0,0,0,3-3.5c1.06-1.47,2.13-3.12,3.19-4.94s2.13-3.67,3-5.55a2.52,2.52,0,0,1,1.29-.91,6.19,6.19,0,0,1,2.28-.46c.76,0,1,.21.69.61-.71,1.32-1.35,2.56-1.9,3.73a30.65,30.65,0,0,0-1.3,3.34,25.85,25.85,0,0,0-.83,3.42,28,28,0,0,0-.23,3.72c0,1.63.43,2.44,1.29,2.44s1.83-.76,2.89-2.28a.36.36,0,0,1,.46,0,.38.38,0,0,1,.15.45,10.45,10.45,0,0,1-2.89,3,5.23,5.23,0,0,1-2.81,1q-3.2,0-3.19-3.72A22.54,22.54,0,0,1,236,64.6,35.43,35.43,0,0,1,230,73Q226.77,76,224.56,76ZM261.8,56.92c.25.11.36.26.3.46s-.27.28-.68.38c-.76,0-1.65,0-2.66.08s-2,.12-3.12.22a67.19,67.19,0,0,0-2.5,7.3,21.93,21.93,0,0,0-1,5.7c0,1.72.66,2.58,2,2.58s2.79-1.14,4.41-3.42a.28.28,0,0,1,.38,0,.47.47,0,0,1,.15.54,14.44,14.44,0,0,1-3.26,3.72A6.42,6.42,0,0,1,251.92,76a4.21,4.21,0,0,1-3-.91,3.77,3.77,0,0,1-.92-2.66,24.62,24.62,0,0,1,1.07-6.08,67.59,67.59,0,0,1,2.73-7.91c-1.31.16-2.53.36-3.64.61-.26,0-.33-.18-.23-.38a3,3,0,0,1,.68-.61,4.62,4.62,0,0,1,1.22-.6,3.07,3.07,0,0,1,1.29-.31h.61a2.6,2.6,0,0,0,.61-.07q1-2.2,2.05-4.26t2.13-3.72a3.87,3.87,0,0,1,1.21-.92,8.51,8.51,0,0,1,1.6-.68,4.6,4.6,0,0,1,1.21-.23c.36-.05.51,0,.46.23q-1.29,2-2.58,4.41T256.1,57c1,0,1.93-.08,2.89-.08Zm9.84-.38a6.45,6.45,0,0,1,2.66.46c.71.3,1.07.68,1.07,1.14a4.81,4.81,0,0,1-.46,1.9,11.09,11.09,0,0,1-.76,1.75.35.35,0,0,1-.38.07.51.51,0,0,1-.23-.45,3.85,3.85,0,0,0,.23-1.52,2.52,2.52,0,0,0-.61-1.75,1.79,1.79,0,0,0-1.52-.68,2.84,2.84,0,0,0-2.12.83,3,3,0,0,0-.76,2.21,5,5,0,0,0,.6,2.35c.46.71.94,1.45,1.45,2.21a15.81,15.81,0,0,1,1.52,2.35,5.7,5.7,0,0,1,.68,2.81,4.87,4.87,0,0,1-2.2,4.26A10,10,0,0,1,265,76a8.49,8.49,0,0,1-4.1-.84c-1-.55-1.45-1.16-1.45-1.82a2.42,2.42,0,0,1,.23-.84,9.29,9.29,0,0,1,.61-1.14,14.68,14.68,0,0,1,.84-1.21,4.39,4.39,0,0,1,1-1,.24.24,0,0,1,.38.08.32.32,0,0,1,.08.45,3.31,3.31,0,0,0-.68,1,2.81,2.81,0,0,0-.23,1.29,3.09,3.09,0,0,0,.91,2.28,3.34,3.34,0,0,0,2.36.84A4.13,4.13,0,0,0,268,74a3.72,3.72,0,0,0,1.14-2.73,5.3,5.3,0,0,0-.69-2.66,17.92,17.92,0,0,0-1.37-2.43c-.5-.81-1-1.63-1.44-2.44a5.63,5.63,0,0,1-.61-2.58,4,4,0,0,1,1.67-3.27A7.69,7.69,0,0,1,271.64,56.54Z" transform="translate(0 -0.02)"/><rect class="cls-2" x="170.5" y="13.98" width="80" height="1"/><rect class="cls-2" x="39.5" y="13.98" width="80" height="1"/><g class="cls-3"><path class="cls-2" d="M145.77,5.5l-3.72,5.1c.43.24.83.49,1.24.7l3.9,2a.53.53,0,0,0,.74-.14,14.78,14.78,0,0,1,3.42-2.73,4.8,4.8,0,0,1,3.05-.71A2.15,2.15,0,0,1,156.47,12a4.94,4.94,0,0,1-1,3,11.8,11.8,0,0,1-1.86,2,4.11,4.11,0,0,1-4,.7c-.86-.27-1.68-.67-2.51-1-.17-.07-.29-.15-.44,0q-2.16,2.66-4.33,5.28a.76.76,0,0,0-.09.18l2.58,1a43.08,43.08,0,0,0,7.63,2.16,12.19,12.19,0,0,0,4.13.08,4.13,4.13,0,0,0,3.5-2.89.47.47,0,0,1,.05-.1l.09-.05c0,.08.14.17.14.25a7.82,7.82,0,0,1-2.24,5.76A6.3,6.3,0,0,1,153.93,30a18.45,18.45,0,0,1-6.63-1.08,40,40,0,0,1-7.24-3.21c-.33-.18-.51-.2-.79.11a9.19,9.19,0,0,1-5.14,3.09A5,5,0,0,1,130,28a3.58,3.58,0,0,1-1.32-4A6.11,6.11,0,0,1,134,19.79a10.2,10.2,0,0,1,4.39.87c.69.28,1.38.56,2.08.81a.46.46,0,0,0,.4-.07c1.53-1.79,3-3.58,4.56-5.39a.39.39,0,0,0,.06-.11l-5.1-3a6.27,6.27,0,0,1-2,1.8,4.41,4.41,0,0,1-4,.48,2.52,2.52,0,0,1-1.6-3.22,4.22,4.22,0,0,1,5.33-3.18,15.3,15.3,0,0,1,2.39,1c.18.08.31.18.47,0,1.24-1.63,2.5-3.25,3.77-4.89l-.24-.2c-1.14-.75-2.26-1.52-3.41-2.23a6.64,6.64,0,0,0-1.51-.61,1.38,1.38,0,0,0-1.47.35.53.53,0,0,1-.1.06l-.11,0a1.69,1.69,0,0,1,.17-.36A3.22,3.22,0,0,1,142.19.65c1.24.64,2.42,1.39,3.63,2.09l.39.24c.81-.72,1.56-1.43,2.36-2.09a3.77,3.77,0,0,1,3-.83A1.76,1.76,0,0,1,153.22,2a4.14,4.14,0,0,1-1.73,3.23,4.36,4.36,0,0,1-5.13.56l-.5-.24ZM138,24.55c-.81-.52-1.59-1.05-2.4-1.53a16.42,16.42,0,0,0-1.91-1,4.58,4.58,0,0,0-1.42-.32,1.33,1.33,0,0,0-1.35.87,2.27,2.27,0,0,0,.47,2.64A4.3,4.3,0,0,0,138,24.55ZM149,14a11.24,11.24,0,0,0,3.16.88,5.65,5.65,0,0,0,1.69-.07,1.38,1.38,0,0,0,1.09-1.69,2.22,2.22,0,0,0-3.42-1.55A12.06,12.06,0,0,0,149,14Zm-9.8-2c-.9-.54-1.75-1.09-2.63-1.57a2.28,2.28,0,0,0-1-.22,1.13,1.13,0,0,0-1.1,1.67,2.5,2.5,0,0,0,1.91,1.53A2.84,2.84,0,0,0,139.15,12Zm8.15-8.43a5.76,5.76,0,0,0,3.35.66,1,1,0,0,0,.89-.94,1.61,1.61,0,0,0-.7-1.63,1.4,1.4,0,0,0-1.62,0,8.86,8.86,0,0,0-1.92,1.9Z" transform="translate(0 -0.02)"/></g></g></g></svg>