<?xml version="1.0" encoding="utf-8"?>
<!-- Generator: Adobe Illustrator 23.0.1, SVG Export Plug-In . SVG Version: 6.00 Build 0)  -->
<svg version="1.1"
	 id="svg2" xmlns:cc="http://creativecommons.org/ns#" xmlns:dc="http://purl.org/dc/elements/1.1/" xmlns:inkscape="http://www.inkscape.org/namespaces/inkscape" xmlns:rdf="http://www.w3.org/1999/02/22-rdf-syntax-ns#" xmlns:sodipodi="http://sodipodi.sourceforge.net/DTD/sodipodi-0.dtd" xmlns:svg="http://www.w3.org/2000/svg"
	 xmlns="http://www.w3.org/2000/svg" xmlns:xlink="http://www.w3.org/1999/xlink" x="0px" y="0px" viewBox="0 0 136.5 162"
	 style="enable-background:new 0 0 136.5 162;" xml:space="preserve">
<style type="text/css">
	.st0{fill:#38527A;}
</style>
<sodipodi:namedview  bordercolor="#666666" borderopacity="1" fit-margin-bottom="0" fit-margin-left="0" fit-margin-right="0" fit-margin-top="0" gridtolerance="10" guidetolerance="10" id="namedview6" inkscape:current-layer="svg2" inkscape:cx="68.23" inkscape:cy="81.003896" inkscape:pageopacity="0" inkscape:pageshadow="2" inkscape:window-height="706" inkscape:window-maximized="1" inkscape:window-width="1366" inkscape:window-x="-8" inkscape:window-y="-8" inkscape:zoom="3.0529412" objecttolerance="10" pagecolor="#ffffff" showgrid="false">
	</sodipodi:namedview>
<path id="path4" inkscape:connector-curvature="0" class="st0" d="M133.6,126.3c-2.4,5.7-5.4,10.9-8.7,15.7
	c-4.6,6.5-8.3,11.1-11.2,13.6c-4.5,4.1-9.3,6.2-14.4,6.4c-3.7,0-8.1-1.1-13.3-3.2c-5.2-2.1-10-3.2-14.3-3.2c-4.6,0-9.5,1.1-14.7,3.2
	c-5.3,2.1-9.5,3.2-12.7,3.4c-4.9,0.2-9.8-2-14.7-6.5c-3.1-2.7-7-7.4-11.7-14c-5-7.1-9.2-15.3-12.4-24.7C1.7,106.7,0,96.9,0,87.4
	c0-10.9,2.3-20.2,7-28.1C10.7,53,15.6,48,21.8,44.4s12.8-5.5,19.9-5.6c3.9,0,9,1.2,15.4,3.6c6.4,2.4,10.4,3.6,12.2,3.6
	c1.3,0,5.9-1.4,13.6-4.2c7.3-2.6,13.4-3.7,18.4-3.3c13.6,1.1,23.9,6.5,30.7,16.2c-12.2,7.4-18.2,17.7-18.1,31
	c0.1,10.3,3.9,18.9,11.2,25.8c3.3,3.2,7.1,5.6,11.2,7.4C135.6,121.4,134.6,123.9,133.6,126.3z M102.3,3.2c0,8.1-3,15.7-8.9,22.7
	c-7,8.3-15.7,13.1-25,12.4c-0.1-1-0.2-2-0.2-3.1c0-7.8,3.4-16.1,9.4-22.9c3-3.4,6.8-6.3,11.4-8.6s9-3.5,13.1-3.7
	C102.3,1.1,102.3,2.2,102.3,3.2L102.3,3.2z"/>
</svg>
