<?xml version="1.0" encoding="utf-8"?>
<!-- Generator: Adobe Illustrator 23.0.1, SVG Export Plug-In . SVG Version: 6.00 Build 0)  -->
<svg version="1.1" id="Шар_1" xmlns="http://www.w3.org/2000/svg" xmlns:xlink="http://www.w3.org/1999/xlink" x="0px" y="0px"
	 viewBox="0 0 62 39" style="enable-background:new 0 0 62 39;" xml:space="preserve">
<style type="text/css">
	.st0{fill-rule:evenodd;clip-rule:evenodd;fill:#38527A;}
</style>
<path class="st0" d="M34,24.8H0L24.6,2.1c2.1-1.9,5.1-2.6,7.9-1.7s4.7,3.2,5.1,6l3.9,27.5c0.1,0.8,0.7,1.5,1.5,1.7
	c0.8,0.3,1.7,0.1,2.3-0.5l10.5-10.2H43.7l-0.4-2.5H62L47.1,36.8c-0.9,0.9-2.2,1.4-3.4,1.4c-0.5,0-1-0.1-1.5-0.2
	c-1.8-0.6-3-2-3.3-3.8l-4-27.5c-0.3-1.9-1.5-3.3-3.4-3.9c-1.8-0.6-3.8-0.2-5.2,1.1L6.5,22.3h27.2L34,24.8z M55,11.8h-2.4V0H55
	l4.5,7.7l0,0V0h2.4v11.8h-2.3L55,4.1l0,0V11.8z"/>
</svg>
